<svg width="572" height="550" viewBox="0 0 572 550" fill="none" xmlns="http://www.w3.org/2000/svg">
<g clip-path="url(#clip0_427_17)">
<rect width="572" height="550" rx="12" fill="#121212"/>
<rect x="13" y="12" width="100" height="100" rx="7" fill="#D9D9D9"/>
<rect x="123" y="12" width="100" height="100" rx="7" fill="#D9D9D9"/>
<rect x="233" y="12" width="100" height="100" rx="7" fill="#D9D9D9"/>
<rect x="343" y="12" width="100" height="100" rx="7" fill="#D9D9D9"/>
<rect x="453" y="12" width="100" height="100" rx="7" fill="#D9D9D9"/>
<rect x="13" y="122" width="100" height="100" rx="7" fill="#D9D9D9"/>
<rect x="123" y="122" width="100" height="100" rx="7" fill="#D9D9D9"/>
<rect x="233" y="122" width="100" height="100" rx="7" fill="#D9D9D9"/>
<rect x="343" y="122" width="100" height="100" rx="7" fill="#D9D9D9"/>
<rect x="453" y="122" width="100" height="100" rx="7" fill="#D9D9D9"/>
<rect x="13" y="232" width="100" height="100" rx="7" fill="#D9D9D9"/>
<rect x="123" y="232" width="100" height="100" rx="7" fill="#D9D9D9"/>
<rect x="233" y="232" width="100" height="100" rx="7" fill="#D9D9D9"/>
<rect x="343" y="232" width="100" height="100" rx="7" fill="#D9D9D9"/>
<rect x="453" y="232" width="100" height="100" rx="7" fill="#D9D9D9"/>
<rect x="13" y="342" width="100" height="100" rx="7" fill="#D9D9D9"/>
<rect x="123" y="342" width="100" height="100" rx="7" fill="#D9D9D9"/>
<rect x="233" y="342" width="100" height="100" rx="7" fill="#D9D9D9"/>
<rect x="343" y="342" width="100" height="100" rx="7" fill="#D9D9D9"/>
<rect x="453" y="342" width="100" height="100" rx="7" fill="#D9D9D9"/>
<rect x="13" y="452" width="100" height="100" rx="7" fill="#D9D9D9"/>
<rect x="123" y="452" width="100" height="100" rx="7" fill="#D9D9D9"/>
<rect x="233" y="452" width="100" height="100" rx="7" fill="#D9D9D9"/>
<rect x="343" y="452" width="100" height="100" rx="7" fill="#D9D9D9"/>
<rect x="453" y="452" width="100" height="100" rx="7" fill="#D9D9D9"/>
</g>
<defs>
<clipPath id="clip0_427_17">
<rect width="572" height="550" rx="12" fill="white"/>
</clipPath>
</defs>
</svg>
